<?xml version="1.0" standalone="no"?><!DOCTYPE svg PUBLIC "-//W3C//DTD SVG 1.1//EN" "http://www.w3.org/Graphics/SVG/1.1/DTD/svg11.dtd"><svg t="1726379440029" class="icon" viewBox="0 0 1024 1024" version="1.1" xmlns="http://www.w3.org/2000/svg" p-id="2515" width="200" height="200" xmlns:xlink="http://www.w3.org/1999/xlink"><path d="M944 422.4v-3.2l-121.6-316.8c-3.2-6.4-6.4-12.8-12.8-16-12.8-6.4-25.6-6.4-38.4 3.2-3.2 3.2-9.6 6.4-9.6 12.8l-83.2 252.8H345.6L262.4 102.4c0-6.4-6.4-9.6-9.6-16-12.8-6.4-25.6-9.6-38.4 0-6.4 3.2-9.6 6.4-12.8 12.8L80 416v3.2c-35.2 92.8-6.4 201.6 73.6 262.4l185.6 137.6 92.8 70.4 54.4 41.6c12.8 9.6 32 9.6 44.8 0l54.4-41.6 92.8-70.4 185.6-140.8c86.4-54.4 118.4-163.2 80-256z" fill="#E24329" p-id="2516"></path><path d="M944 422.4v-3.2c-60.8 12.8-115.2 38.4-163.2 73.6L512 694.4c92.8 70.4 169.6 128 169.6 128l185.6-140.8c83.2-57.6 115.2-166.4 76.8-259.2z" fill="#FC6D26" p-id="2517"></path><path d="M342.4 825.6l92.8 70.4 54.4 41.6c12.8 9.6 32 9.6 44.8 0l54.4-41.6 92.8-70.4s-80-60.8-169.6-128c-92.8 67.2-169.6 128-169.6 128z" fill="#FCA326" p-id="2518"></path><path d="M243.2 492.8c-48-35.2-105.6-60.8-163.2-73.6v3.2c-35.2 92.8-6.4 201.6 73.6 262.4l185.6 137.6s80-60.8 169.6-128l-265.6-201.6z" fill="#FC6D26" p-id="2519"></path></svg>